<svg width="563" height="324" viewBox="0 0 563 324" fill="none" xmlns="http://www.w3.org/2000/svg">
<path d="M64.3733 319.652V308.059L103.828 299.157V236.013H3.94546L0 221.935L128.331 0L144.321 4.34758V201.232H174.846V236.013H144.321V299.157L173.6 308.059V319.652H64.3733ZM33.6402 201.232H103.828V79.9131H102.374L33.2249 199.369L33.6402 201.232Z" fill="#03080D"/>
<path d="M287.519 324C275.336 324 263.915 319.997 253.256 311.992C242.734 303.849 233.528 292.532 225.637 278.04C217.746 263.41 211.586 246.364 207.156 226.904C202.726 207.443 200.511 186.326 200.511 163.553C200.511 140.504 202.726 119.111 207.156 99.3738C211.586 79.499 217.746 62.1776 225.637 47.4096C233.667 32.5035 242.942 20.9099 253.463 12.6288C263.984 4.20958 275.336 0 287.519 0C299.701 0 311.122 4.20958 321.782 12.6288C332.442 21.0479 341.786 32.7105 349.815 47.6166C357.845 62.5227 364.074 79.9131 368.504 99.7878C373.073 119.525 375.357 140.78 375.357 163.553C375.357 186.188 373.142 207.236 368.712 226.696C364.282 246.157 358.052 263.203 350.023 277.833C342.132 292.325 332.857 303.642 322.197 311.785C311.538 319.928 299.978 324 287.519 324ZM287.519 303.504C294.717 303.504 300.809 301.227 305.792 296.672C310.776 291.98 314.791 284.319 317.836 273.692C320.882 262.927 323.097 248.573 324.481 230.63C326.004 212.55 326.766 190.121 326.766 163.346C326.766 127.599 325.451 99.3048 322.82 78.4639C320.19 57.623 316.037 42.7169 310.361 33.7457C304.685 24.6364 297.071 20.0818 287.519 20.0818C280.458 20.0818 274.506 22.5661 269.66 27.5348C264.815 32.3655 260.87 40.3706 257.824 51.5502C254.778 62.5917 252.563 77.2907 251.179 95.6473C249.933 113.866 249.31 136.432 249.31 163.346C249.31 190.259 249.933 212.757 251.179 230.837C252.563 248.78 254.778 263.134 257.824 273.899C260.87 284.526 264.815 292.118 269.66 296.672C274.506 301.227 280.458 303.504 287.519 303.504Z" fill="#03080D"/>
<path d="M452.527 319.652V308.059L491.982 299.157V236.013H392.099L388.154 221.935L516.485 0L532.475 4.34758V201.232H563V236.013H532.475V299.157L561.754 308.059V319.652H452.527ZM421.794 201.232H491.982V79.9131H490.528L421.379 199.369L421.794 201.232Z" fill="#03080D"/>
</svg>
