<svg width="87" height="20" viewBox="0 0 87 20" fill="none" xmlns="http://www.w3.org/2000/svg">
<path d="M86.9336 17.0143H83.657V7.36332C83.657 5.0255 82.7915 3.82662 80.535 3.82662C78.1549 3.82662 76.6093 5.565 76.6093 8.38237V17.0143H73.3328V1.54874H76.4548V4.24623C77.3203 2.4479 78.8658 1.24902 81.5242 1.24902C85.1717 1.24902 86.9336 3.04735 86.9336 6.79385V17.0143Z" fill="#010103"/>
<path d="M64.2043 17.314C59.1349 17.314 56.322 14.1969 56.322 9.28153C56.322 4.36612 59.1349 1.24902 64.2043 1.24902C69.2737 1.24902 72.0866 4.36612 72.0866 9.28153C72.0866 14.1969 69.2737 17.314 64.2043 17.314ZM64.2043 14.8863C67.1409 14.8863 68.8101 13.028 68.8101 9.28153C68.8101 5.565 67.1409 3.67676 64.2043 3.67676C61.2678 3.67676 59.5986 5.565 59.5986 9.28153C59.5986 13.028 61.2678 14.8863 64.2043 14.8863Z" fill="#010103"/>
<path d="M57.5744 17.0144H53.9269L49.8466 11.4696L45.7355 17.0144H42.1189L47.9611 8.9819L42.428 1.54883H46.0446L49.8466 6.70402L53.6178 1.54883H57.2653L51.7322 8.9819L57.5744 17.0144Z" fill="#010103"/>
<path d="M35.8567 17.314C30.7873 17.314 27.9744 14.1969 27.9744 9.28153C27.9744 4.51598 30.6327 1.24902 35.6712 1.24902C40.7097 1.24902 43.368 4.57592 43.368 9.01178C43.368 9.31151 43.3371 9.58125 43.3062 9.88097H31.2509C31.3437 13.5376 33.1365 15.1261 35.8567 15.1261C38.1132 15.1261 39.5351 13.9871 40.0296 12.2188H43.028C42.317 15.3659 39.9987 17.314 35.8567 17.314ZM35.6712 3.43698C33.1983 3.43698 31.5909 4.87564 31.2509 7.78293H40.0915C39.7514 4.87564 38.1441 3.43698 35.6712 3.43698Z" fill="#010103"/>
<path d="M19.9633 0L14.8115 4.37093L0 0L14.8115 19.357L19.9633 14.986V0Z" fill="url(#paint0_linear_182_430)"/>
<defs>
<linearGradient id="paint0_linear_182_430" x1="19.3193" y1="14.986" x2="10.4822" y2="-5.2109" gradientUnits="userSpaceOnUse">
<stop stop-color="#FFD4A2"/>
<stop offset="1" stop-color="#FE0159"/>
</linearGradient>
</defs>
</svg>
