<svg width="82" height="20" viewBox="0 0 82 20" fill="none" xmlns="http://www.w3.org/2000/svg">
<path d="M75.5072 17.0598C71.1676 17.0598 68.7596 14.3757 68.7596 10.143C68.7596 6.03928 71.0353 3.22607 75.3485 3.22607C79.6616 3.22607 81.9373 6.0909 81.9373 9.91068C81.9373 10.1688 81.9108 10.4011 81.8844 10.6591H71.5645C71.6439 13.8079 73.1787 15.1758 75.5072 15.1758C77.4389 15.1758 78.6561 14.195 79.0795 12.6723H81.6462C81.0376 15.3822 79.053 17.0598 75.5072 17.0598ZM75.3485 5.11015C73.2316 5.11015 71.8556 6.349 71.5645 8.8525H79.1324C78.8413 6.349 77.4654 5.11015 75.3485 5.11015Z" fill="#010103"/>
<path d="M62.8374 17.0598C58.5507 17.0598 56.9101 15.2274 56.9101 12.6723H59.6091C59.7414 14.195 60.4294 15.2274 62.8638 15.2274C65.2453 15.2274 65.9598 14.2208 65.9598 13.0852C65.9598 12.027 65.166 11.485 63.8694 11.3044L61.3555 10.943C58.4977 10.5559 57.2805 9.57516 57.2805 7.35556C57.2805 5.05853 58.7623 3.22607 62.8374 3.22607C66.9124 3.22607 68.3942 5.05853 68.3942 7.40718H65.6952C65.5629 6.16833 65.1395 5.05853 62.8109 5.05853C60.8263 5.05853 60.0854 5.85862 60.0854 7.14908C60.0854 8.23307 60.7205 8.62021 61.7789 8.77507L64.2927 9.1364C67.0712 9.52354 68.7647 10.5043 68.7647 12.9304C68.7647 15.2274 67.1241 17.0598 62.8374 17.0598Z" fill="#010103"/>
<path d="M52.1927 16.8015H49.3878V3.48396H52.0604V6.55526C52.7748 4.20662 53.992 3.3291 55.9766 3.3291C56.3471 3.3291 56.8763 3.40653 57.2203 3.48396V5.88422L55.8708 5.8326C53.648 5.8326 52.1927 7.5102 52.1927 10.4783V16.8015Z" fill="#010103"/>
<path d="M42.439 17.0598C38.0994 17.0598 35.6914 14.3757 35.6914 10.143C35.6914 6.03928 37.9671 3.22607 42.2803 3.22607C46.5934 3.22607 48.8691 6.0909 48.8691 9.91068C48.8691 10.1688 48.8426 10.4011 48.8162 10.6591H38.4963C38.5757 13.8079 40.1105 15.1758 42.439 15.1758C44.3707 15.1758 45.5879 14.195 46.0113 12.6723H48.578C47.9694 15.3822 45.9848 17.0598 42.439 17.0598ZM42.2803 5.11015C40.1634 5.11015 38.7874 6.349 38.4963 8.8525H46.0642C45.7731 6.349 44.3972 5.11015 42.2803 5.11015Z" fill="#010103"/>
<path d="M31.8343 16.802H28.4472L23.2608 3.48438H26.1716L30.1407 14.3759L34.0835 3.48438H37.0206L31.8343 16.802Z" fill="#010103"/>
<path fill-rule="evenodd" clip-rule="evenodd" d="M5.6961 1.79189L16.4184 13.3748L11.4855 17.5651L0.763169 5.98213L5.6961 1.79189Z" fill="#010103"/>
<path fill-rule="evenodd" clip-rule="evenodd" d="M18.6191 7.40639L11.7694 11.7481L14.6736 1.69473L18.6191 7.40639Z" fill="#010103"/>
</svg>
