<svg width="68" height="20" viewBox="0 0 68 20" fill="none" xmlns="http://www.w3.org/2000/svg">
<path fill-rule="evenodd" clip-rule="evenodd" d="M14.6699 8.19745L9.54644 8.19745L9.54644 1.8818L14.6699 1.8818L14.6699 8.19745Z" fill="#C1B7FF"/>
<path fill-rule="evenodd" clip-rule="evenodd" d="M7.19436 17.6711L2.07085 17.6711L2.07085 11.3554L7.19436 11.3554L7.19436 17.6711Z" fill="#C1B7FF"/>
<path fill-rule="evenodd" clip-rule="evenodd" d="M5.53602 1.79189L15.9566 13.3748L11.1625 17.5651L0.741912 5.98213L5.53602 1.79189Z" fill="#5B41FF"/>
<path d="M62.74 17.018H59.835V3.16402H62.603V6.35904C63.343 3.91579 64.6037 3.00293 66.6591 3.00293C67.0428 3.00293 67.591 3.08347 67.9472 3.16402V5.66097L66.5495 5.60727C64.2474 5.60727 62.74 7.35244 62.74 10.4401V17.018Z" fill="#010103"/>
<path d="M52.638 17.2865C48.1434 17.2865 45.6494 14.4942 45.6494 10.091C45.6494 5.82203 48.0064 2.89551 52.4736 2.89551C56.9408 2.89551 59.2978 5.87573 59.2978 9.84936C59.2978 10.1179 59.2704 10.3595 59.243 10.628H48.5545C48.6367 13.9035 50.2263 15.3265 52.638 15.3265C54.6387 15.3265 55.8994 14.3063 56.3379 12.7222H58.9963C58.366 15.5413 56.3105 17.2865 52.638 17.2865ZM52.4736 4.85548C50.2811 4.85548 48.856 6.14422 48.5545 8.74856H56.3927C56.0912 6.14422 54.6661 4.85548 52.4736 4.85548Z" fill="#010103"/>
<path d="M39.0003 17.2865C34.5057 17.2865 32.0117 14.4942 32.0117 10.091C32.0117 5.82203 34.3687 2.89551 38.8359 2.89551C43.3031 2.89551 45.6601 5.87573 45.6601 9.84936C45.6601 10.1179 45.6327 10.3595 45.6053 10.628H34.9168C34.999 13.9035 36.5886 15.3265 39.0003 15.3265C41.001 15.3265 42.2617 14.3063 42.7002 12.7222H45.3586C44.7283 15.5413 42.6728 17.2865 39.0003 17.2865ZM38.8359 4.85548C36.6434 4.85548 35.2183 6.14422 34.9168 8.74856H42.755C42.4535 6.14422 41.0284 4.85548 38.8359 4.85548Z" fill="#010103"/>
<path d="M32.1497 17.0181H20.9131V15.1118L28.5046 5.20458H21.1871V3.16406H31.8756V5.07033L24.2841 14.9776H32.1497V17.0181Z" fill="#010103"/>
</svg>
