<svg width="54" height="20" viewBox="0 0 54 20" fill="none" xmlns="http://www.w3.org/2000/svg">
<path d="M52.1698 19.2764C51.0139 19.2764 50.3534 18.5793 50.3534 17.6946C50.3534 16.8099 51.0139 16.1128 52.1698 16.1128C53.3258 16.1128 53.9588 16.8099 53.9588 17.6946C53.9588 18.5793 53.3258 19.2764 52.1698 19.2764Z" fill="#010103"/>
<path d="M50.7238 19.0889H47.4762L43.8434 14.1291L40.1829 19.0889H36.9629L42.1645 11.9038L37.2381 5.25488H40.4582L43.8434 9.86624L47.201 5.25488H50.4486L45.5222 11.9038L50.7238 19.0889Z" fill="#010103"/>
<path d="M30.0653 19.3571C26.7627 19.3571 24.9738 17.7485 24.9738 15.1747C24.9738 13.1103 26.2673 11.4749 29.7901 11.18L32.5423 10.9655C34.2211 10.8046 34.7165 10.4293 34.7165 9.54455C34.7165 7.96275 33.7807 7.02439 31.7166 7.02439C29.7901 7.02439 28.7442 7.8287 28.6066 9.54455H25.7444C25.7444 6.75629 27.5058 4.98682 31.6891 4.98682C35.8449 4.98682 37.6338 6.75629 37.6338 9.54455V15.55C37.6338 17.4267 37.7989 18.6332 38.0742 19.089H35.4596C35.0192 18.5528 34.8541 17.9898 34.8541 16.7029C34.0835 18.4723 32.5147 19.3571 30.0653 19.3571ZM30.8634 17.3999C33.3679 17.3999 34.7165 15.4964 34.7165 13.2175V12.0379C34.4137 12.4132 33.6431 12.6277 32.5423 12.7082L30.7258 12.869C28.6892 13.0299 27.8911 13.861 27.8911 14.987C27.8911 16.408 28.7718 17.3999 30.8634 17.3999Z" fill="#010103"/>
<path d="M24.4222 19.0889H21.5049V0H24.4222V19.0889Z" fill="#010103"/>
<path d="M14.277 19.3571C9.7634 19.3571 7.25891 16.5688 7.25891 12.1719C7.25891 7.90913 9.62579 4.98682 14.1118 4.98682C18.5979 4.98682 20.9648 7.96275 20.9648 11.9307C20.9648 12.1988 20.9373 12.4401 20.9097 12.7082H10.1762C10.2588 15.979 11.8551 17.3999 14.277 17.3999C16.2861 17.3999 17.5521 16.3811 17.9924 14.7993H20.662C20.029 17.6144 17.9649 19.3571 14.277 19.3571ZM14.1118 6.94396C11.9101 6.94396 10.479 8.23085 10.1762 10.8314H18.0475C17.7447 8.23085 16.3136 6.94396 14.1118 6.94396Z" fill="#010103"/>
<path d="M2.91731 19.0887H0V9.59339L2.77971 5.25461V8.44502C3.5228 6.0053 4.7888 5.09375 6.85294 5.09375C7.23824 5.09375 7.78868 5.17418 8.14647 5.25461V7.74796L6.74285 7.69434C4.43102 7.69434 2.91731 9.437 2.91731 12.5202V19.0887Z" fill="#010103"/>
</svg>
