<svg width="52" height="21" viewBox="0 0 52 21" fill="none" xmlns="http://www.w3.org/2000/svg">
<path d="M44.589 18.5593C40.26 18.5593 37.8378 15.9152 37.8378 11.8104C37.8378 7.73087 40.26 5.06152 44.589 5.06152C48.9438 5.06152 51.3659 7.73087 51.3659 11.8104C51.3659 15.9152 48.9438 18.5593 44.589 18.5593ZM44.589 16.0915C46.805 16.0915 48.0419 14.6812 48.0419 11.8104C48.0419 8.93963 46.805 7.52941 44.589 7.52941C42.3987 7.52941 41.1619 8.93963 41.1619 11.8104C41.1619 14.6812 42.3987 16.0915 44.589 16.0915Z" fill="#010103"/>
<path d="M36.9705 18.3077H33.6465V5.31351H36.9705V18.3077ZM35.3214 3.37446C34.0845 3.37446 33.3888 2.64416 33.3888 1.68723C33.3888 0.730294 34.0845 0 35.3214 0C36.5582 0 37.2282 0.730294 37.2282 1.68723C37.2282 2.64416 36.5582 3.37446 35.3214 3.37446Z" fill="#010103"/>
<path d="M32.2635 18.3079H28.9395V0.37793H32.2635V18.3079Z" fill="#010103"/>
<path d="M21.5861 18.5593C17.2571 18.5593 14.835 15.9152 14.835 11.8104C14.835 7.80642 17.1541 5.06152 21.4315 5.06152C25.7348 5.06152 28.0539 7.8316 28.0539 11.6593C28.0539 11.9363 28.0281 12.1882 28.0023 12.4904H18.159C18.2621 15.1345 19.5505 16.3433 21.5861 16.3433C23.2353 16.3433 24.3175 15.5374 24.704 14.2028H27.7704C27.2035 16.8721 25.1679 18.5593 21.5861 18.5593ZM21.4315 7.27758C19.602 7.27758 18.4425 8.31007 18.159 10.375H24.7298C24.4464 8.31007 23.261 7.27758 21.4315 7.27758Z" fill="#010103"/>
<path fill-rule="evenodd" clip-rule="evenodd" d="M9.08478 1.9751L12.7524 5.2612L6.80595 11.4877L12.7524 17.7142L9.08478 21.0003L0 11.4877L9.08478 1.9751Z" fill="#010103"/>
</svg>
