<svg width="24" height="24" viewBox="0 0 24 24" fill="none" xmlns="http://www.w3.org/2000/svg">
<g clip-path="url(#clip0_2043_1292)">
<path d="M10.4866 5.84756C8.23534 6.37246 6.42311 8.15779 5.8697 10.3959C5.31456 12.6412 5.94991 14.9297 7.56934 16.5178C8.14216 17.0796 8.4842 17.98 8.4842 18.9265V19.0776C8.4842 19.7008 8.75613 20.2616 9.18733 20.6481V21.8901C9.18733 23.0532 10.1336 23.9994 11.2967 23.9994H12.703C13.8661 23.9994 14.8123 23.0532 14.8123 21.8901V20.6481C15.2435 20.2616 15.5155 19.7009 15.5155 19.0776V18.9237C15.5155 17.9916 15.8758 17.0741 16.4793 16.4693C17.6714 15.2746 18.328 13.6872 18.328 11.9994C18.328 7.96448 14.5888 4.8914 10.4866 5.84756ZM13.4061 21.8901C13.4061 22.2778 13.0907 22.5932 12.703 22.5932H11.2967C10.909 22.5932 10.5936 22.2778 10.5936 21.8901V21.1869H13.4061V21.8901ZM15.4839 15.476C14.6102 16.3514 14.1092 17.6081 14.1092 18.9237V19.0776C14.1092 19.4653 13.7938 19.7807 13.4061 19.7807H10.5936C10.2059 19.7807 9.89045 19.4653 9.89045 19.0776V18.9265C9.89045 17.5906 9.40328 16.3467 8.55391 15.5138C7.29344 14.2777 6.80036 12.4907 7.2348 10.7334C7.66253 9.00342 9.06428 7.62313 10.8059 7.2171C14.0249 6.46649 16.9217 8.86949 16.9217 11.9994C16.9217 13.3121 16.411 14.5468 15.4839 15.476Z" fill="#010103"/>
<path d="M6.53087 5.53646L4.5421 3.54774C4.26755 3.27315 3.82234 3.27315 3.54774 3.54774C3.27315 3.82234 3.27315 4.26751 3.54774 4.5421L5.53651 6.53082C5.81105 6.80541 6.25632 6.80541 6.53087 6.53082C6.80546 6.25623 6.80546 5.81105 6.53087 5.53646Z" fill="#010103"/>
<path d="M3.5625 11.2969H0.703125C0.314812 11.2969 0 11.6117 0 12C0 12.3883 0.314812 12.7031 0.703125 12.7031H3.5625C3.95081 12.7031 4.26562 12.3883 4.26562 12C4.26562 11.6117 3.95081 11.2969 3.5625 11.2969Z" fill="#010103"/>
<path d="M23.2969 11.2969H20.4375C20.0492 11.2969 19.7344 11.6117 19.7344 12C19.7344 12.3883 20.0492 12.7031 20.4375 12.7031H23.2969C23.6852 12.7031 24 12.3883 24 12C24 11.6117 23.6852 11.2969 23.2969 11.2969Z" fill="#010103"/>
<path d="M20.4527 3.54774C20.1782 3.27315 19.733 3.27315 19.4584 3.54774L17.4696 5.53646C17.195 5.81101 17.195 6.25623 17.4696 6.53082C17.7442 6.80541 18.1894 6.80541 18.464 6.53082L20.4527 4.5421C20.7273 4.26755 20.7273 3.82234 20.4527 3.54774Z" fill="#010103"/>
<path d="M12 0C11.6117 0 11.2969 0.314812 11.2969 0.703125V3.5625C11.2969 3.95081 11.6117 4.26562 12 4.26562C12.3883 4.26562 12.7031 3.95081 12.7031 3.5625V0.703125C12.7031 0.314812 12.3883 0 12 0Z" fill="#010103"/>
<path d="M12.0001 8.48438C11.7111 8.48438 11.4167 8.51902 11.1255 8.58722C9.9131 8.8702 8.89811 9.86822 8.59994 11.0706C8.50647 11.4475 8.73621 11.8288 9.11308 11.9223C9.49005 12.0158 9.87133 11.786 9.9648 11.4091C10.1364 10.7174 10.7451 10.1201 11.4457 9.95653C11.6324 9.9128 11.8189 9.89062 12.0001 9.89062C12.3884 9.89062 12.7032 9.57581 12.7032 9.1875C12.7032 8.79919 12.3884 8.48438 12.0001 8.48438Z" fill="#010103"/>
</g>
<defs>
<clipPath id="clip0_2043_1292">
<rect width="24" height="24" fill="white"/>
</clipPath>
</defs>
</svg>
