<svg width="16" height="16" viewBox="0 0 16 16" fill="none" xmlns="http://www.w3.org/2000/svg">
<g clip-path="url(#clip0_182_3453)">
<path fill-rule="evenodd" clip-rule="evenodd" d="M12.7426 3.75752C12.7425 3.62502 12.6899 3.49797 12.5962 3.40428C12.5025 3.31059 12.3754 3.25792 12.2429 3.25784L5.6494 3.25171C5.58302 3.25052 5.51707 3.26257 5.45539 3.28715C5.39371 3.31172 5.33755 3.34834 5.29018 3.39485C5.2428 3.44136 5.20517 3.49685 5.17946 3.55806C5.15376 3.61928 5.14051 3.685 5.14048 3.75139C5.14045 3.81778 5.15364 3.88352 5.17928 3.94476C5.20493 4.006 5.24251 4.06151 5.28984 4.10807C5.33717 4.15463 5.3933 4.1913 5.45495 4.21593C5.5166 4.24057 5.58255 4.25268 5.64893 4.25156L11.0357 4.25674L3.39844 11.8836C3.30455 11.9772 3.2517 12.1043 3.25152 12.237C3.25135 12.3696 3.30386 12.4968 3.3975 12.5907C3.49114 12.6846 3.61825 12.7374 3.75086 12.7376C3.88347 12.7378 4.01071 12.6853 4.10461 12.5916L11.7432 4.96243L11.7484 10.352C11.7473 10.4184 11.7594 10.4843 11.7841 10.546C11.8087 10.6076 11.8454 10.6638 11.8919 10.7111C11.9385 10.7584 11.994 10.796 12.0552 10.8216C12.1165 10.8473 12.1822 10.8605 12.2486 10.8605C12.315 10.8604 12.3807 10.8472 12.4419 10.8215C12.5031 10.7958 12.5586 10.7581 12.6051 10.7108C12.6517 10.6634 12.6883 10.6072 12.7128 10.5455C12.7374 10.4839 12.7495 10.4179 12.7483 10.3515L12.7426 3.75752Z" fill="#808080"/>
</g>
<defs>
<clipPath id="clip0_182_3453">
<rect width="16" height="16" fill="white"/>
</clipPath>
</defs>
</svg>
