<svg width="10" height="11" viewBox="0 0 10 11" fill="none" xmlns="http://www.w3.org/2000/svg">
<path fill-rule="evenodd" clip-rule="evenodd" d="M9.99653 1.25752C9.99645 1.12502 9.94377 0.997973 9.85008 0.904282C9.75639 0.81059 9.62934 0.757918 9.49684 0.757835L2.90331 0.751706C2.83692 0.750522 2.77097 0.762569 2.7093 0.787146C2.64762 0.811723 2.59146 0.848336 2.54408 0.894851C2.49671 0.941365 2.45907 0.996848 2.43337 1.05806C2.40767 1.11928 2.39442 1.185 2.39438 1.25139C2.39435 1.31778 2.40754 1.38352 2.43319 1.44476C2.45883 1.506 2.49642 1.56151 2.54375 1.60807C2.59108 1.65463 2.64721 1.6913 2.70886 1.71593C2.77051 1.74057 2.83645 1.75268 2.90283 1.75156L8.28957 1.75674L0.652349 9.38359C0.558456 9.47724 0.505608 9.60434 0.505431 9.73695C0.505254 9.86956 0.557764 9.99681 0.651406 10.0907C0.74505 10.1846 0.872156 10.2374 1.00476 10.2376C1.13737 10.2378 1.26462 10.1853 1.35851 10.0916L8.99715 2.46243L9.00234 7.852C9.00121 7.91838 9.01332 7.98433 9.03796 8.04598C9.06259 8.10763 9.09926 8.16376 9.14582 8.21109C9.19238 8.25842 9.2479 8.296 9.30914 8.32165C9.37038 8.34729 9.43611 8.36048 9.5025 8.36045C9.56889 8.36042 9.63461 8.34717 9.69583 8.32146C9.75704 8.29576 9.81253 8.25813 9.85904 8.21075C9.90556 8.16338 9.94217 8.10722 9.96675 8.04554C9.99132 7.98386 10.0034 7.91791 10.0022 7.85153L9.99653 1.25752Z" fill="#010103"/>
</svg>
