<svg width="116" height="43" viewBox="0 0 116 43" fill="none" xmlns="http://www.w3.org/2000/svg">
<path d="M51.426 33.3021C49.4927 33.3021 47.7608 32.8389 46.2302 31.9125C44.6997 30.9861 43.4964 29.662 42.6203 27.9401C41.7443 26.2082 41.3063 24.149 41.3063 21.7625C41.3063 19.3559 41.7443 17.2917 42.6203 15.5698C43.5064 13.8378 44.7097 12.5087 46.2302 11.5823C47.7608 10.6559 49.4927 10.1927 51.426 10.1927C52.6142 10.1927 53.7269 10.3639 54.7641 10.7062C55.8113 11.0486 56.7477 11.547 57.5734 12.2016C58.3991 12.8561 59.0788 13.6566 59.6125 14.6031C60.1563 15.5497 60.5188 16.622 60.7 17.8203H57.2865C57.1556 17.0852 56.9089 16.4408 56.5464 15.887C56.1939 15.3231 55.7559 14.8498 55.2323 14.4672C54.7188 14.0745 54.1398 13.7825 53.4953 13.5911C52.8609 13.3898 52.1863 13.2891 51.4714 13.2891C50.1825 13.2891 49.0194 13.6163 47.9823 14.2708C46.9552 14.9153 46.1446 15.8719 45.5505 17.1406C44.9665 18.3993 44.6745 19.9399 44.6745 21.7625C44.6745 23.5951 44.9715 25.1408 45.5656 26.3995C46.1597 27.6481 46.9703 28.5946 47.9974 29.2391C49.0245 29.8835 50.1774 30.2057 51.4563 30.2057C52.1712 30.2057 52.8458 30.1101 53.4802 29.9187C54.1146 29.7274 54.6936 29.4405 55.2172 29.0578C55.7408 28.6752 56.1788 28.212 56.5313 27.6682C56.8938 27.1144 57.1455 26.475 57.2865 25.75H60.7C60.5288 26.8677 60.1814 27.8898 59.6578 28.8161C59.1342 29.7325 58.4646 30.528 57.649 31.2026C56.8333 31.8672 55.9019 32.3858 54.8547 32.7583C53.8075 33.1208 52.6646 33.3021 51.426 33.3021ZM65.8813 10.4948V33H62.6188V10.4948H65.8813ZM73.2981 33.3625C72.2307 33.3625 71.2641 33.1661 70.3981 32.7734C69.5321 32.3707 68.8474 31.7866 68.3439 31.0214C67.8404 30.2561 67.5887 29.3247 67.5887 28.2271C67.5887 27.2705 67.77 26.4901 68.1325 25.8859C68.505 25.2717 69.0035 24.7833 69.6278 24.4208C70.2521 24.0583 70.9469 23.7865 71.7121 23.6052C72.4774 23.424 73.2628 23.283 74.0684 23.1823C75.0854 23.0715 75.9061 22.9759 76.5304 22.8953C77.1547 22.8148 77.6078 22.6889 77.8898 22.5177C78.1818 22.3365 78.3278 22.0495 78.3278 21.6568V21.5812C78.3278 20.6247 78.0559 19.8845 77.5121 19.3609C76.9785 18.8373 76.183 18.5755 75.1257 18.5755C74.0281 18.5755 73.1571 18.8172 72.5127 19.3005C71.8783 19.7738 71.4403 20.3125 71.1986 20.9167L68.1023 20.2068C68.4748 19.1797 69.0135 18.354 69.7184 17.7297C70.4333 17.0953 71.249 16.6321 72.1653 16.3401C73.0917 16.0481 74.0583 15.9021 75.0653 15.9021C75.7399 15.9021 76.4549 15.9826 77.2101 16.1437C77.9653 16.2948 78.6752 16.5818 79.3398 17.0047C80.0144 17.4175 80.5632 18.0116 80.9861 18.787C81.409 19.5623 81.6205 20.5642 81.6205 21.7927V33H78.4033V30.6891H78.2825C78.0811 31.1019 77.7639 31.5148 77.3309 31.9276C76.908 32.3405 76.3642 32.6828 75.6996 32.9547C75.0351 33.2266 74.2345 33.3625 73.2981 33.3625ZM74.008 30.7344C74.9243 30.7344 75.7047 30.5582 76.3491 30.2057C76.9936 29.8432 77.487 29.37 77.8293 28.7859C78.1717 28.2019 78.3429 27.5826 78.3429 26.9281V24.738C78.222 24.8488 77.9955 24.9545 77.6632 25.0552C77.3309 25.1559 76.9533 25.2415 76.5304 25.312C76.1075 25.3825 75.6946 25.4479 75.2918 25.5083C74.8891 25.5587 74.5517 25.599 74.2799 25.6292C73.6455 25.7198 73.0665 25.8608 72.5429 26.0521C72.0193 26.2333 71.5963 26.5052 71.2741 26.8677C70.962 27.2201 70.8059 27.6884 70.8059 28.2724C70.8059 29.088 71.108 29.7023 71.7121 30.1151C72.3163 30.528 73.0816 30.7344 74.008 30.7344ZM84.1586 33V16.1135H87.4211V33H84.1586ZM85.8049 13.5156C85.231 13.5156 84.7426 13.3243 84.3398 12.9417C83.9371 12.559 83.7357 12.1009 83.7357 11.5672C83.7357 11.0234 83.9371 10.5602 84.3398 10.1776C84.7426 9.79496 85.231 9.60365 85.8049 9.60365C86.3688 9.60365 86.8522 9.79496 87.2549 10.1776C87.6678 10.5602 87.8742 11.0234 87.8742 11.5672C87.8742 12.1009 87.6678 12.559 87.2549 12.9417C86.8522 13.3243 86.3688 13.5156 85.8049 13.5156ZM89.9441 33V16.1135H93.0706V18.8927H93.2972C93.6496 17.9562 94.2236 17.2262 95.0191 16.7026C95.8246 16.1689 96.7812 15.9021 97.8889 15.9021C99.0167 15.9021 99.9581 16.1689 100.713 16.7026C101.479 17.2262 102.048 17.9562 102.42 18.8927H102.601C103.004 17.9764 103.644 17.2514 104.52 16.7177C105.396 16.174 106.438 15.9021 107.646 15.9021C109.177 15.9021 110.43 16.3854 111.407 17.3521C112.384 18.3087 112.872 19.7536 112.872 21.687V33H109.58V21.9891C109.58 20.8411 109.267 20.0155 108.643 19.512C108.019 18.9984 107.274 18.7417 106.408 18.7417C105.34 18.7417 104.51 19.074 103.915 19.7385C103.331 20.3931 103.039 21.2238 103.039 22.2307V33H99.7467V21.7776C99.7467 20.8613 99.4647 20.1262 98.9009 19.5724C98.337 19.0186 97.5969 18.7417 96.6805 18.7417C96.0562 18.7417 95.4772 18.9078 94.9436 19.2401C94.42 19.5623 93.997 20.0155 93.6748 20.5995C93.3627 21.1734 93.2066 21.838 93.2066 22.5932V33H89.9441Z" fill="#010103"/>
<path opacity="0.4" fill-rule="evenodd" clip-rule="evenodd" d="M29.2407 18.9011L21.0531 18.9011L21.0531 8.80844L29.2407 8.80844L29.2407 18.9011Z" fill="#C8D105"/>
<path opacity="0.4" fill-rule="evenodd" clip-rule="evenodd" d="M17.2915 34.0398L9.10388 34.0398L9.10388 23.9471L17.2915 23.9471L17.2915 34.0398Z" fill="#72C7C9"/>
<path fill-rule="evenodd" clip-rule="evenodd" d="M14.6427 8.66405L31.2953 27.1741L23.6341 33.8703L6.98149 15.3603L14.6427 8.66405Z" fill="#F75421"/>
</svg>
