<svg width="10" height="11" viewBox="0 0 10 11" fill="none" xmlns="http://www.w3.org/2000/svg">
<path fill-rule="evenodd" clip-rule="evenodd" d="M9.50434 1.25752C9.50426 1.12502 9.45159 0.997973 9.35789 0.904282C9.2642 0.81059 9.13715 0.757918 9.00465 0.757835L2.41112 0.751706C2.34474 0.750522 2.27878 0.762569 2.21711 0.787146C2.15543 0.811723 2.09927 0.848336 2.0519 0.894851C2.00452 0.941365 1.96689 0.996848 1.94118 1.05806C1.91548 1.11928 1.90223 1.185 1.9022 1.25139C1.90216 1.31778 1.91536 1.38352 1.941 1.44476C1.96665 1.506 2.00423 1.56151 2.05156 1.60807C2.09889 1.65463 2.15502 1.6913 2.21667 1.71593C2.27832 1.74057 2.34426 1.75268 2.41065 1.75156L7.79739 1.75674L0.160161 9.38359C0.0662683 9.47724 0.0134202 9.60434 0.0132436 9.73695C0.0130669 9.86956 0.0655761 9.99681 0.159219 10.0907C0.252863 10.1846 0.379969 10.2374 0.512577 10.2376C0.645185 10.2378 0.772432 10.1853 0.866325 10.0916L8.50496 2.46243L8.51015 7.852C8.50903 7.91838 8.52114 7.98433 8.54577 8.04598C8.57041 8.10763 8.60707 8.16376 8.65363 8.21109C8.70019 8.25842 8.75571 8.296 8.81695 8.32165C8.87819 8.34729 8.94392 8.36048 9.01031 8.36045C9.07671 8.36042 9.14243 8.34717 9.20364 8.32146C9.26486 8.29576 9.32034 8.25813 9.36685 8.21075C9.41337 8.16338 9.44998 8.10722 9.47456 8.04554C9.49914 7.98386 9.51118 7.91791 9.51 7.85153L9.50434 1.25752Z" fill="#808080"/>
</svg>
