<svg width="116" height="43" viewBox="0 0 116 43" fill="none" xmlns="http://www.w3.org/2000/svg">
<path d="M51.4251 33.3021C49.4917 33.3021 47.7598 32.8389 46.2292 31.9125C44.6987 30.9861 43.4954 29.662 42.6193 27.9401C41.7433 26.2082 41.3053 24.149 41.3053 21.7625C41.3053 19.3559 41.7433 17.2917 42.6193 15.5698C43.5054 13.8378 44.7087 12.5087 46.2292 11.5823C47.7598 10.6559 49.4917 10.1927 51.4251 10.1927C52.6133 10.1927 53.7259 10.3639 54.7631 10.7062C55.8103 11.0486 56.7468 11.547 57.5725 12.2016C58.3982 12.8561 59.0778 13.6566 59.6115 14.6031C60.1553 15.5497 60.5178 16.622 60.699 17.8203H57.2855C57.1546 17.0852 56.9079 16.4408 56.5454 15.887C56.1929 15.3231 55.7549 14.8498 55.2313 14.4672C54.7178 14.0745 54.1388 13.7825 53.4943 13.5911C52.86 13.3898 52.1853 13.2891 51.4704 13.2891C50.1815 13.2891 49.0185 13.6163 47.9813 14.2708C46.9542 14.9153 46.1436 15.8719 45.5495 17.1406C44.9655 18.3993 44.6735 19.9399 44.6735 21.7625C44.6735 23.5951 44.9706 25.1408 45.5646 26.3995C46.1587 27.6481 46.9693 28.5946 47.9964 29.2391C49.0235 29.8835 50.1765 30.2057 51.4553 30.2057C52.1702 30.2057 52.8449 30.1101 53.4792 29.9187C54.1136 29.7274 54.6926 29.4405 55.2162 29.0578C55.7398 28.6752 56.1778 28.212 56.5303 27.6682C56.8928 27.1144 57.1445 26.475 57.2855 25.75H60.699C60.5278 26.8677 60.1804 27.8898 59.6568 28.8161C59.1332 29.7325 58.4636 30.528 57.648 31.2026C56.8324 31.8672 55.9009 32.3858 54.8537 32.7583C53.8065 33.1208 52.6636 33.3021 51.4251 33.3021ZM65.8804 10.4948V33H62.6179V10.4948H65.8804ZM73.2971 33.3625C72.2297 33.3625 71.2631 33.1661 70.3971 32.7734C69.5311 32.3707 68.8464 31.7866 68.3429 31.0214C67.8395 30.2561 67.5877 29.3247 67.5877 28.2271C67.5877 27.2705 67.769 26.4901 68.1315 25.8859C68.5041 25.2717 69.0025 24.7833 69.6268 24.4208C70.2511 24.0583 70.9459 23.7865 71.7112 23.6052C72.4764 23.424 73.2619 23.283 74.0674 23.1823C75.0844 23.0715 75.9051 22.9759 76.5294 22.8953C77.1537 22.8148 77.6068 22.6889 77.8888 22.5177C78.1808 22.3365 78.3268 22.0495 78.3268 21.6568V21.5812C78.3268 20.6247 78.0549 19.8845 77.5112 19.3609C76.9775 18.8373 76.182 18.5755 75.1247 18.5755C74.0271 18.5755 73.1561 18.8172 72.5117 19.3005C71.8773 19.7738 71.4393 20.3125 71.1976 20.9167L68.1013 20.2068C68.4738 19.1797 69.0126 18.354 69.7174 17.7297C70.4324 17.0953 71.248 16.6321 72.1643 16.3401C73.0907 16.0481 74.0574 15.9021 75.0643 15.9021C75.7389 15.9021 76.4539 15.9826 77.2091 16.1437C77.9643 16.2948 78.6742 16.5818 79.3388 17.0047C80.0134 17.4175 80.5622 18.0116 80.9851 18.787C81.408 19.5623 81.6195 20.5642 81.6195 21.7927V33H78.4023V30.6891H78.2815C78.0801 31.1019 77.7629 31.5148 77.3299 31.9276C76.907 32.3405 76.3633 32.6828 75.6987 32.9547C75.0341 33.2266 74.2336 33.3625 73.2971 33.3625ZM74.007 30.7344C74.9233 30.7344 75.7037 30.5582 76.3482 30.2057C76.9926 29.8432 77.486 29.37 77.8284 28.7859C78.1707 28.2019 78.3419 27.5826 78.3419 26.9281V24.738C78.2211 24.8488 77.9945 24.9545 77.6622 25.0552C77.3299 25.1559 76.9523 25.2415 76.5294 25.312C76.1065 25.3825 75.6936 25.4479 75.2909 25.5083C74.8881 25.5587 74.5508 25.599 74.2789 25.6292C73.6445 25.7198 73.0655 25.8608 72.5419 26.0521C72.0183 26.2333 71.5954 26.5052 71.2732 26.8677C70.961 27.2201 70.8049 27.6884 70.8049 28.2724C70.8049 29.088 71.107 29.7023 71.7112 30.1151C72.3153 30.528 73.0806 30.7344 74.007 30.7344ZM97.9628 16.1135L91.8607 33H88.3264L82.2092 16.1135H85.7284L90.018 29.1333H90.1993L94.4587 16.1135H97.9628ZM105.636 33.3474C104.055 33.3474 102.671 32.9849 101.483 32.2599C100.305 31.5349 99.3882 30.5179 98.7337 29.2089C98.0893 27.8998 97.7671 26.3793 97.7671 24.6474C97.7671 22.8953 98.0893 21.3648 98.7337 20.0557C99.3882 18.7366 100.305 17.7146 101.483 16.9896C102.671 16.2646 104.055 15.9021 105.636 15.9021C107.227 15.9021 108.612 16.2646 109.79 16.9896C110.968 17.7146 111.884 18.7366 112.539 20.0557C113.193 21.3648 113.521 22.8953 113.521 24.6474C113.521 26.3793 113.193 27.8998 112.539 29.2089C111.884 30.5179 110.968 31.5349 109.79 32.2599C108.612 32.9849 107.227 33.3474 105.636 33.3474ZM105.636 30.5833C106.673 30.5833 107.529 30.3115 108.204 29.7677C108.879 29.224 109.377 28.504 109.699 27.6078C110.032 26.7016 110.198 25.7148 110.198 24.6474C110.198 23.5599 110.032 22.563 109.699 21.6568C109.377 20.7505 108.879 20.0255 108.204 19.4818C107.529 18.938 106.673 18.6661 105.636 18.6661C104.609 18.6661 103.758 18.938 103.084 19.4818C102.419 20.0255 101.921 20.7505 101.588 21.6568C101.256 22.563 101.09 23.5599 101.09 24.6474C101.09 25.7148 101.256 26.7016 101.588 27.6078C101.921 28.504 102.419 29.224 103.084 29.7677C103.758 30.3115 104.609 30.5833 105.636 30.5833Z" fill="#010103"/>
<path opacity="0.4" fill-rule="evenodd" clip-rule="evenodd" d="M29.2417 18.9004L21.0541 18.9004L21.0541 8.80771L29.2417 8.80771L29.2417 18.9004Z" fill="#C8D105"/>
<path opacity="0.4" fill-rule="evenodd" clip-rule="evenodd" d="M17.2934 34.0371L9.10583 34.0371L9.10583 23.9444L17.2934 23.9444L17.2934 34.0371Z" fill="#72C7C9"/>
<path fill-rule="evenodd" clip-rule="evenodd" d="M14.6447 8.66527L31.2972 27.1754L23.636 33.8716L6.98345 15.3615L14.6447 8.66527Z" fill="#F75421"/>
</svg>
