<svg width="30" height="30" viewBox="0 0 30 30" fill="none" xmlns="http://www.w3.org/2000/svg">
<path d="M10.7852 15.842H10.2115C8.35681 15.842 7.42948 15.842 7.0342 15.2305C6.63892 14.6191 7.01555 13.7673 7.7688 12.0635L10.0333 6.94154C10.7182 5.3925 11.0606 4.61798 11.725 4.18399C12.3893 3.75 13.2324 3.75 14.9187 3.75H17.5305C19.579 3.75 20.6032 3.75 20.9896 4.41919C21.3759 5.08838 20.8677 5.98235 19.8514 7.77028L18.5115 10.1273C18.0062 11.0162 17.7536 11.4606 17.7571 11.8244C17.7617 12.2972 18.0132 12.7327 18.4192 12.9713C18.7317 13.1549 19.2409 13.1549 20.2593 13.1549C21.5466 13.1549 22.1903 13.1549 22.5256 13.3777C22.9612 13.6672 23.1891 14.1852 23.1092 14.704C23.0477 15.1032 22.6147 15.582 21.7488 16.5396L14.8298 24.1904C13.4709 25.6931 12.7914 26.4445 12.3351 26.2067C11.8788 25.9689 12.0979 24.9777 12.5362 22.9952L13.3946 19.112C13.7283 17.6025 13.8951 16.8477 13.4939 16.3448C13.0926 15.842 12.3235 15.842 10.7852 15.842Z" stroke="#010103" stroke-width="1.5" stroke-linejoin="round"/>
</svg>
