<svg width="30" height="30" viewBox="0 0 30 30" fill="none" xmlns="http://www.w3.org/2000/svg">
<path d="M25.625 9.09693L15 14.9997M15 14.9997L4.37496 9.09693M15 14.9997L15 26.8747M26.25 20.0729V9.92655C26.25 9.49824 26.25 9.28409 26.1869 9.09309C26.1311 8.92412 26.0398 8.76902 25.9192 8.63816C25.7829 8.49024 25.5957 8.38623 25.2213 8.17823L15.9713 3.03934C15.6168 2.84239 15.4395 2.74392 15.2518 2.70531C15.0857 2.67115 14.9143 2.67115 14.7482 2.70531C14.5605 2.74392 14.3832 2.84239 14.0287 3.03934L4.77871 8.17823C4.40431 8.38624 4.21711 8.49024 4.08079 8.63816C3.9602 8.76902 3.86893 8.92412 3.81311 9.09309C3.75 9.28409 3.75 9.49824 3.75 9.92655V20.0729C3.75 20.5012 3.75 20.7154 3.81311 20.9064C3.86893 21.0754 3.9602 21.2305 4.08079 21.3613C4.21711 21.5092 4.40431 21.6132 4.77872 21.8212L14.0287 26.9601C14.3832 27.1571 14.5605 27.2556 14.7482 27.2942C14.9143 27.3283 15.0857 27.3283 15.2518 27.2942C15.4395 27.2556 15.6168 27.1571 15.9713 26.9601L25.2213 21.8212C25.5957 21.6132 25.7829 21.5092 25.9192 21.3613C26.0398 21.2305 26.1311 21.0754 26.1869 20.9064C26.25 20.7154 26.25 20.5012 26.25 20.0729Z" stroke="#010103" stroke-width="1.5" stroke-linecap="round" stroke-linejoin="round"/>
</svg>
