<svg width="43" height="36" viewBox="0 0 43 36" fill="none" xmlns="http://www.w3.org/2000/svg">
<path d="M0 36V26.0974C0 23.1748 0.544323 20.0974 1.63297 16.8653C2.72162 13.6332 4.23552 10.5387 6.17467 7.58166C8.11382 4.62464 10.3932 2.09742 13.0127 0L20.5652 5.46704C18.49 8.52722 16.7209 11.7249 15.2581 15.0602C13.7952 18.3954 13.0638 22.0229 13.0638 25.9427V36H0Z" fill="#010103"/>
<path d="M22.4348 36V26.0974C22.4348 23.1748 22.9791 20.0974 24.0677 16.8653C25.1564 13.6332 26.6703 10.5387 28.6094 7.58166C30.5486 4.62464 32.8279 2.09742 35.4475 0L43 5.46704C40.9247 8.52722 39.1557 11.7249 37.6928 15.0602C36.2299 18.3954 35.4985 22.0229 35.4985 25.9427V36H22.4348Z" fill="#010103"/>
</svg>
