<svg width="256" height="256" viewBox="0 0 256 256" fill="none" xmlns="http://www.w3.org/2000/svg">
<rect width="256" height="256" fill="white"/>
<path d="M123.27 135.213C121.906 135.213 120.685 134.886 119.605 134.233C118.526 133.58 117.677 132.646 117.059 131.431C116.441 130.21 116.132 128.757 116.132 127.074C116.132 125.376 116.441 123.92 117.059 122.706C117.684 121.484 118.533 120.547 119.605 119.893C120.685 119.24 121.906 118.913 123.27 118.913C124.108 118.913 124.893 119.034 125.624 119.276C126.363 119.517 127.024 119.869 127.606 120.33C128.188 120.792 128.668 121.357 129.044 122.024C129.428 122.692 129.683 123.448 129.811 124.293H127.404C127.311 123.775 127.137 123.32 126.882 122.93C126.633 122.532 126.324 122.198 125.955 121.928C125.593 121.651 125.184 121.445 124.73 121.31C124.282 121.168 123.806 121.097 123.302 121.097C122.393 121.097 121.573 121.328 120.841 121.79C120.117 122.244 119.545 122.919 119.126 123.814C118.714 124.702 118.508 125.788 118.508 127.074C118.508 128.366 118.718 129.457 119.137 130.344C119.556 131.225 120.127 131.893 120.852 132.347C121.576 132.802 122.389 133.029 123.291 133.029C123.796 133.029 124.271 132.962 124.719 132.827C125.166 132.692 125.575 132.489 125.944 132.219C126.313 131.95 126.622 131.623 126.871 131.239C127.127 130.849 127.304 130.398 127.404 129.886H129.811C129.691 130.675 129.445 131.396 129.076 132.049C128.707 132.695 128.235 133.256 127.659 133.732C127.084 134.201 126.427 134.567 125.688 134.83C124.95 135.085 124.144 135.213 123.27 135.213ZM133.466 119.126V135H131.165V119.126H133.466ZM138.697 135.256C137.944 135.256 137.262 135.117 136.652 134.84C136.041 134.556 135.558 134.144 135.203 133.604C134.848 133.065 134.67 132.408 134.67 131.634C134.67 130.959 134.798 130.408 135.054 129.982C135.316 129.549 135.668 129.205 136.108 128.949C136.549 128.693 137.039 128.501 137.578 128.374C138.118 128.246 138.672 128.146 139.24 128.075C139.958 127.997 140.537 127.93 140.977 127.873C141.417 127.816 141.737 127.727 141.936 127.607C142.142 127.479 142.245 127.276 142.245 126.999V126.946C142.245 126.271 142.053 125.749 141.669 125.38C141.293 125.011 140.732 124.826 139.986 124.826C139.212 124.826 138.598 124.996 138.143 125.337C137.696 125.671 137.387 126.051 137.216 126.477L135.032 125.977C135.295 125.252 135.675 124.67 136.172 124.229C136.676 123.782 137.252 123.455 137.898 123.249C138.551 123.043 139.233 122.94 139.944 122.94C140.419 122.94 140.924 122.997 141.456 123.111C141.989 123.217 142.49 123.42 142.958 123.718C143.434 124.009 143.821 124.428 144.12 124.975C144.418 125.522 144.567 126.229 144.567 127.095V135H142.298V133.37H142.213C142.071 133.661 141.847 133.952 141.542 134.244C141.243 134.535 140.86 134.776 140.391 134.968C139.922 135.16 139.358 135.256 138.697 135.256ZM139.198 133.402C139.844 133.402 140.394 133.278 140.849 133.029C141.304 132.773 141.652 132.44 141.893 132.028C142.135 131.616 142.255 131.179 142.255 130.717V129.173C142.17 129.251 142.01 129.325 141.776 129.396C141.542 129.467 141.275 129.528 140.977 129.577C140.679 129.627 140.387 129.673 140.103 129.716C139.819 129.751 139.581 129.78 139.39 129.801C138.942 129.865 138.534 129.964 138.164 130.099C137.795 130.227 137.497 130.419 137.269 130.675C137.049 130.923 136.939 131.254 136.939 131.665C136.939 132.241 137.152 132.674 137.578 132.965C138.005 133.256 138.544 133.402 139.198 133.402ZM156.094 123.089L151.791 135H149.298L144.983 123.089H147.465L150.491 132.273H150.619L153.623 123.089H156.094ZM161.507 135.245C160.392 135.245 159.415 134.989 158.577 134.478C157.746 133.967 157.1 133.249 156.638 132.326C156.184 131.403 155.956 130.33 155.956 129.109C155.956 127.873 156.184 126.793 156.638 125.87C157.1 124.94 157.746 124.219 158.577 123.707C159.415 123.196 160.392 122.94 161.507 122.94C162.629 122.94 163.606 123.196 164.437 123.707C165.268 124.219 165.914 124.94 166.375 125.87C166.837 126.793 167.068 127.873 167.068 129.109C167.068 130.33 166.837 131.403 166.375 132.326C165.914 133.249 165.268 133.967 164.437 134.478C163.606 134.989 162.629 135.245 161.507 135.245ZM161.507 133.295C162.238 133.295 162.842 133.104 163.318 132.72C163.794 132.337 164.145 131.829 164.373 131.197C164.607 130.558 164.724 129.862 164.724 129.109C164.724 128.342 164.607 127.638 164.373 126.999C164.145 126.36 163.794 125.849 163.318 125.465C162.842 125.082 162.238 124.89 161.507 124.89C160.782 124.89 160.182 125.082 159.706 125.465C159.238 125.849 158.886 126.36 158.652 126.999C158.417 127.638 158.3 128.342 158.3 129.109C158.3 129.862 158.417 130.558 158.652 131.197C158.886 131.829 159.238 132.337 159.706 132.72C160.182 133.104 160.782 133.295 161.507 133.295Z" fill="#010103"/>
<path opacity="0.4" fill-rule="evenodd" clip-rule="evenodd" d="M107.63 125.333L101.855 125.333L101.855 118.214L107.63 118.214L107.63 125.333Z" fill="#C8D105"/>
<path opacity="0.4" fill-rule="evenodd" clip-rule="evenodd" d="M99.2026 136.011L93.4276 136.011L93.4276 128.892L99.2026 128.892L99.2026 136.011Z" fill="#72C7C9"/>
<path fill-rule="evenodd" clip-rule="evenodd" d="M97.3306 118.111L109.076 131.167L103.672 135.89L91.9269 122.834L97.3306 118.111Z" fill="#F75421"/>
</svg>
